<?xml version="1.0" standalone="no"?>
<!DOCTYPE svg PUBLIC "-//W3C//DTD SVG 20010904//EN"
 "http://www.w3.org/TR/2001/REC-SVG-20010904/DTD/svg10.dtd">
<svg version="1.0" xmlns="http://www.w3.org/2000/svg"
 width="600.000000pt" height="600.000000pt" viewBox="0 0 600.000000 600.000000"
 preserveAspectRatio="xMidYMid meet">
<metadata>
Created by potrace 1.14, written by Peter Selinger 2001-2017
</metadata>
<g transform="translate(0.000000,600.000000) scale(0.100000,-0.100000)"
fill="#000000" stroke="none">
<path d="M2975 5941 c-9 -8 -270 -160 -410 -238 -33 -19 -98 -56 -144 -84 -46
-27 -86 -49 -88 -49 -2 0 -22 -12 -44 -26 -23 -14 -60 -36 -82 -49 -23 -13
-141 -80 -262 -150 -273 -158 -529 -306 -575 -332 -19 -11 -75 -44 -125 -73
-49 -29 -108 -62 -130 -75 -22 -12 -139 -80 -260 -150 -121 -70 -260 -150
-308 -178 -49 -28 -91 -57 -94 -64 -3 -8 -6 -674 -7 -1481 l-1 -1467 160 -93
c88 -51 183 -106 210 -121 28 -16 149 -86 270 -156 121 -70 237 -137 258 -149
21 -11 46 -26 55 -31 58 -35 164 -96 657 -380 303 -174 638 -368 746 -431 108
-63 202 -114 210 -114 8 0 19 4 25 9 5 5 401 235 879 511 479 277 906 524 950
549 44 26 87 50 95 54 8 4 30 16 48 27 18 11 147 86 285 166 139 80 257 150
262 155 10 10 16 2942 5 2957 -3 5 -122 76 -265 158 -404 234 -846 490 -885
512 -19 11 -57 33 -85 48 -27 15 -74 42 -103 60 -29 19 -54 34 -56 34 -2 0
-81 45 -176 100 -94 55 -173 100 -175 100 -2 0 -33 18 -70 41 -37 22 -83 49
-101 60 -19 10 -49 27 -66 37 -38 22 -319 184 -460 266 -96 55 -125 65 -143
47z"/>
</g>
</svg>
